<?xml version="1.0" encoding="utf-8" standalone="no"?>
<!DOCTYPE svg PUBLIC "-//W3C//DTD SVG 1.1//EN"
  "http://www.w3.org/Graphics/SVG/1.1/DTD/svg11.dtd">
<!-- Created with matplotlib (https://matplotlib.org/) -->
<svg height="308.278125pt" version="1.1" viewBox="0 0 818.503125 308.278125" width="818.503125pt" xmlns="http://www.w3.org/2000/svg" xmlns:xlink="http://www.w3.org/1999/xlink">
 <metadata>
  <rdf:RDF xmlns:cc="http://creativecommons.org/ns#" xmlns:dc="http://purl.org/dc/elements/1.1/" xmlns:rdf="http://www.w3.org/1999/02/22-rdf-syntax-ns#">
   <cc:Work>
    <dc:type rdf:resource="http://purl.org/dc/dcmitype/StillImage"/>
    <dc:date>2021-03-01T20:45:49.566197</dc:date>
    <dc:format>image/svg+xml</dc:format>
    <dc:creator>
     <cc:Agent>
      <dc:title>Matplotlib v3.3.4, https://matplotlib.org/</dc:title>
     </cc:Agent>
    </dc:creator>
   </cc:Work>
  </rdf:RDF>
 </metadata>
 <defs>
  <style type="text/css">*{stroke-linecap:butt;stroke-linejoin:round;}</style>
 </defs>
 <g id="figure_1">
  <g id="patch_1">
   <path d="M 0 308.278125 
L 818.503125 308.278125 
L 818.503125 0 
L 0 0 
z
" style="fill:#ffffff;"/>
  </g>
  <g id="axes_1">
   <g id="patch_2">
    <path d="M 30.103125 284.4 
L 811.303125 284.4 
L 811.303125 7.2 
L 30.103125 7.2 
z
" style="fill:#ffffff;"/>
   </g>
   <g id="matplotlib.axis_1">
    <g id="xtick_1">
     <g id="line2d_1">
      <defs>
       <path d="M 0 0 
L 0 3.5 
" id="m098c3e4a26" style="stroke:#000000;stroke-width:0.8;"/>
      </defs>
      <g>
       <use style="stroke:#000000;stroke-width:0.8;" x="65.612216" xlink:href="#m098c3e4a26" y="284.4"/>
      </g>
     </g>
     <g id="text_1">
      <!-- 0 days, 00:00 -->
      <g transform="translate(31.45206 298.998438)scale(0.1 -0.1)">
       <defs>
        <path d="M 31.78125 66.40625 
Q 24.171875 66.40625 20.328125 58.90625 
Q 16.5 51.421875 16.5 36.375 
Q 16.5 21.390625 20.328125 13.890625 
Q 24.171875 6.390625 31.78125 6.390625 
Q 39.453125 6.390625 43.28125 13.890625 
Q 47.125 21.390625 47.125 36.375 
Q 47.125 51.421875 43.28125 58.90625 
Q 39.453125 66.40625 31.78125 66.40625 
z
M 31.78125 74.21875 
Q 44.046875 74.21875 50.515625 64.515625 
Q 56.984375 54.828125 56.984375 36.375 
Q 56.984375 17.96875 50.515625 8.265625 
Q 44.046875 -1.421875 31.78125 -1.421875 
Q 19.53125 -1.421875 13.0625 8.265625 
Q 6.59375 17.96875 6.59375 36.375 
Q 6.59375 54.828125 13.0625 64.515625 
Q 19.53125 74.21875 31.78125 74.21875 
z
" id="DejaVuSans-48"/>
        <path id="DejaVuSans-32"/>
        <path d="M 45.40625 46.390625 
L 45.40625 75.984375 
L 54.390625 75.984375 
L 54.390625 0 
L 45.40625 0 
L 45.40625 8.203125 
Q 42.578125 3.328125 38.25 0.953125 
Q 33.9375 -1.421875 27.875 -1.421875 
Q 17.96875 -1.421875 11.734375 6.484375 
Q 5.515625 14.40625 5.515625 27.296875 
Q 5.515625 40.1875 11.734375 48.09375 
Q 17.96875 56 27.875 56 
Q 33.9375 56 38.25 53.625 
Q 42.578125 51.265625 45.40625 46.390625 
z
M 14.796875 27.296875 
Q 14.796875 17.390625 18.875 11.75 
Q 22.953125 6.109375 30.078125 6.109375 
Q 37.203125 6.109375 41.296875 11.75 
Q 45.40625 17.390625 45.40625 27.296875 
Q 45.40625 37.203125 41.296875 42.84375 
Q 37.203125 48.484375 30.078125 48.484375 
Q 22.953125 48.484375 18.875 42.84375 
Q 14.796875 37.203125 14.796875 27.296875 
z
" id="DejaVuSans-100"/>
        <path d="M 34.28125 27.484375 
Q 23.390625 27.484375 19.1875 25 
Q 14.984375 22.515625 14.984375 16.5 
Q 14.984375 11.71875 18.140625 8.90625 
Q 21.296875 6.109375 26.703125 6.109375 
Q 34.1875 6.109375 38.703125 11.40625 
Q 43.21875 16.703125 43.21875 25.484375 
L 43.21875 27.484375 
z
M 52.203125 31.203125 
L 52.203125 0 
L 43.21875 0 
L 43.21875 8.296875 
Q 40.140625 3.328125 35.546875 0.953125 
Q 30.953125 -1.421875 24.3125 -1.421875 
Q 15.921875 -1.421875 10.953125 3.296875 
Q 6 8.015625 6 15.921875 
Q 6 25.140625 12.171875 29.828125 
Q 18.359375 34.515625 30.609375 34.515625 
L 43.21875 34.515625 
L 43.21875 35.40625 
Q 43.21875 41.609375 39.140625 45 
Q 35.0625 48.390625 27.6875 48.390625 
Q 23 48.390625 18.546875 47.265625 
Q 14.109375 46.140625 10.015625 43.890625 
L 10.015625 52.203125 
Q 14.9375 54.109375 19.578125 55.046875 
Q 24.21875 56 28.609375 56 
Q 40.484375 56 46.34375 49.84375 
Q 52.203125 43.703125 52.203125 31.203125 
z
" id="DejaVuSans-97"/>
        <path d="M 32.171875 -5.078125 
Q 28.375 -14.84375 24.75 -17.8125 
Q 21.140625 -20.796875 15.09375 -20.796875 
L 7.90625 -20.796875 
L 7.90625 -13.28125 
L 13.1875 -13.28125 
Q 16.890625 -13.28125 18.9375 -11.515625 
Q 21 -9.765625 23.484375 -3.21875 
L 25.09375 0.875 
L 2.984375 54.6875 
L 12.5 54.6875 
L 29.59375 11.921875 
L 46.6875 54.6875 
L 56.203125 54.6875 
z
" id="DejaVuSans-121"/>
        <path d="M 44.28125 53.078125 
L 44.28125 44.578125 
Q 40.484375 46.53125 36.375 47.5 
Q 32.28125 48.484375 27.875 48.484375 
Q 21.1875 48.484375 17.84375 46.4375 
Q 14.5 44.390625 14.5 40.28125 
Q 14.5 37.15625 16.890625 35.375 
Q 19.28125 33.59375 26.515625 31.984375 
L 29.59375 31.296875 
Q 39.15625 29.25 43.1875 25.515625 
Q 47.21875 21.78125 47.21875 15.09375 
Q 47.21875 7.46875 41.1875 3.015625 
Q 35.15625 -1.421875 24.609375 -1.421875 
Q 20.21875 -1.421875 15.453125 -0.5625 
Q 10.6875 0.296875 5.421875 2 
L 5.421875 11.28125 
Q 10.40625 8.6875 15.234375 7.390625 
Q 20.0625 6.109375 24.8125 6.109375 
Q 31.15625 6.109375 34.5625 8.28125 
Q 37.984375 10.453125 37.984375 14.40625 
Q 37.984375 18.0625 35.515625 20.015625 
Q 33.0625 21.96875 24.703125 23.78125 
L 21.578125 24.515625 
Q 13.234375 26.265625 9.515625 29.90625 
Q 5.8125 33.546875 5.8125 39.890625 
Q 5.8125 47.609375 11.28125 51.796875 
Q 16.75 56 26.8125 56 
Q 31.78125 56 36.171875 55.265625 
Q 40.578125 54.546875 44.28125 53.078125 
z
" id="DejaVuSans-115"/>
        <path d="M 11.71875 12.40625 
L 22.015625 12.40625 
L 22.015625 4 
L 14.015625 -11.625 
L 7.71875 -11.625 
L 11.71875 4 
z
" id="DejaVuSans-44"/>
        <path d="M 11.71875 12.40625 
L 22.015625 12.40625 
L 22.015625 0 
L 11.71875 0 
z
M 11.71875 51.703125 
L 22.015625 51.703125 
L 22.015625 39.3125 
L 11.71875 39.3125 
z
" id="DejaVuSans-58"/>
       </defs>
       <use xlink:href="#DejaVuSans-48"/>
       <use x="63.623047" xlink:href="#DejaVuSans-32"/>
       <use x="95.410156" xlink:href="#DejaVuSans-100"/>
       <use x="158.886719" xlink:href="#DejaVuSans-97"/>
       <use x="220.166016" xlink:href="#DejaVuSans-121"/>
       <use x="279.345703" xlink:href="#DejaVuSans-115"/>
       <use x="331.445312" xlink:href="#DejaVuSans-44"/>
       <use x="363.232422" xlink:href="#DejaVuSans-32"/>
       <use x="395.019531" xlink:href="#DejaVuSans-48"/>
       <use x="458.642578" xlink:href="#DejaVuSans-48"/>
       <use x="522.265625" xlink:href="#DejaVuSans-58"/>
       <use x="555.957031" xlink:href="#DejaVuSans-48"/>
       <use x="619.580078" xlink:href="#DejaVuSans-48"/>
      </g>
     </g>
    </g>
    <g id="xtick_2">
     <g id="line2d_2">
      <g>
       <use style="stroke:#000000;stroke-width:0.8;" x="151.694861" xlink:href="#m098c3e4a26" y="284.4"/>
      </g>
     </g>
     <g id="text_2">
      <!-- 0 days, 03:00 -->
      <g transform="translate(117.534704 298.998438)scale(0.1 -0.1)">
       <defs>
        <path d="M 40.578125 39.3125 
Q 47.65625 37.796875 51.625 33 
Q 55.609375 28.21875 55.609375 21.1875 
Q 55.609375 10.40625 48.1875 4.484375 
Q 40.765625 -1.421875 27.09375 -1.421875 
Q 22.515625 -1.421875 17.65625 -0.515625 
Q 12.796875 0.390625 7.625 2.203125 
L 7.625 11.71875 
Q 11.71875 9.328125 16.59375 8.109375 
Q 21.484375 6.890625 26.8125 6.890625 
Q 36.078125 6.890625 40.9375 10.546875 
Q 45.796875 14.203125 45.796875 21.1875 
Q 45.796875 27.640625 41.28125 31.265625 
Q 36.765625 34.90625 28.71875 34.90625 
L 20.21875 34.90625 
L 20.21875 43.015625 
L 29.109375 43.015625 
Q 36.375 43.015625 40.234375 45.921875 
Q 44.09375 48.828125 44.09375 54.296875 
Q 44.09375 59.90625 40.109375 62.90625 
Q 36.140625 65.921875 28.71875 65.921875 
Q 24.65625 65.921875 20.015625 65.03125 
Q 15.375 64.15625 9.8125 62.3125 
L 9.8125 71.09375 
Q 15.4375 72.65625 20.34375 73.4375 
Q 25.25 74.21875 29.59375 74.21875 
Q 40.828125 74.21875 47.359375 69.109375 
Q 53.90625 64.015625 53.90625 55.328125 
Q 53.90625 49.265625 50.4375 45.09375 
Q 46.96875 40.921875 40.578125 39.3125 
z
" id="DejaVuSans-51"/>
       </defs>
       <use xlink:href="#DejaVuSans-48"/>
       <use x="63.623047" xlink:href="#DejaVuSans-32"/>
       <use x="95.410156" xlink:href="#DejaVuSans-100"/>
       <use x="158.886719" xlink:href="#DejaVuSans-97"/>
       <use x="220.166016" xlink:href="#DejaVuSans-121"/>
       <use x="279.345703" xlink:href="#DejaVuSans-115"/>
       <use x="331.445312" xlink:href="#DejaVuSans-44"/>
       <use x="363.232422" xlink:href="#DejaVuSans-32"/>
       <use x="395.019531" xlink:href="#DejaVuSans-48"/>
       <use x="458.642578" xlink:href="#DejaVuSans-51"/>
       <use x="522.265625" xlink:href="#DejaVuSans-58"/>
       <use x="555.957031" xlink:href="#DejaVuSans-48"/>
       <use x="619.580078" xlink:href="#DejaVuSans-48"/>
      </g>
     </g>
    </g>
    <g id="xtick_3">
     <g id="line2d_3">
      <g>
       <use style="stroke:#000000;stroke-width:0.8;" x="237.777505" xlink:href="#m098c3e4a26" y="284.4"/>
      </g>
     </g>
     <g id="text_3">
      <!-- 0 days, 06:00 -->
      <g transform="translate(203.617349 298.998438)scale(0.1 -0.1)">
       <defs>
        <path d="M 33.015625 40.375 
Q 26.375 40.375 22.484375 35.828125 
Q 18.609375 31.296875 18.609375 23.390625 
Q 18.609375 15.53125 22.484375 10.953125 
Q 26.375 6.390625 33.015625 6.390625 
Q 39.65625 6.390625 43.53125 10.953125 
Q 47.40625 15.53125 47.40625 23.390625 
Q 47.40625 31.296875 43.53125 35.828125 
Q 39.65625 40.375 33.015625 40.375 
z
M 52.59375 71.296875 
L 52.59375 62.3125 
Q 48.875 64.0625 45.09375 64.984375 
Q 41.3125 65.921875 37.59375 65.921875 
Q 27.828125 65.921875 22.671875 59.328125 
Q 17.53125 52.734375 16.796875 39.40625 
Q 19.671875 43.65625 24.015625 45.921875 
Q 28.375 48.1875 33.59375 48.1875 
Q 44.578125 48.1875 50.953125 41.515625 
Q 57.328125 34.859375 57.328125 23.390625 
Q 57.328125 12.15625 50.6875 5.359375 
Q 44.046875 -1.421875 33.015625 -1.421875 
Q 20.359375 -1.421875 13.671875 8.265625 
Q 6.984375 17.96875 6.984375 36.375 
Q 6.984375 53.65625 15.1875 63.9375 
Q 23.390625 74.21875 37.203125 74.21875 
Q 40.921875 74.21875 44.703125 73.484375 
Q 48.484375 72.75 52.59375 71.296875 
z
" id="DejaVuSans-54"/>
       </defs>
       <use xlink:href="#DejaVuSans-48"/>
       <use x="63.623047" xlink:href="#DejaVuSans-32"/>
       <use x="95.410156" xlink:href="#DejaVuSans-100"/>
       <use x="158.886719" xlink:href="#DejaVuSans-97"/>
       <use x="220.166016" xlink:href="#DejaVuSans-121"/>
       <use x="279.345703" xlink:href="#DejaVuSans-115"/>
       <use x="331.445312" xlink:href="#DejaVuSans-44"/>
       <use x="363.232422" xlink:href="#DejaVuSans-32"/>
       <use x="395.019531" xlink:href="#DejaVuSans-48"/>
       <use x="458.642578" xlink:href="#DejaVuSans-54"/>
       <use x="522.265625" xlink:href="#DejaVuSans-58"/>
       <use x="555.957031" xlink:href="#DejaVuSans-48"/>
       <use x="619.580078" xlink:href="#DejaVuSans-48"/>
      </g>
     </g>
    </g>
    <g id="xtick_4">
     <g id="line2d_4">
      <g>
       <use style="stroke:#000000;stroke-width:0.8;" x="323.86015" xlink:href="#m098c3e4a26" y="284.4"/>
      </g>
     </g>
     <g id="text_4">
      <!-- 0 days, 09:00 -->
      <g transform="translate(289.699994 298.998438)scale(0.1 -0.1)">
       <defs>
        <path d="M 10.984375 1.515625 
L 10.984375 10.5 
Q 14.703125 8.734375 18.5 7.8125 
Q 22.3125 6.890625 25.984375 6.890625 
Q 35.75 6.890625 40.890625 13.453125 
Q 46.046875 20.015625 46.78125 33.40625 
Q 43.953125 29.203125 39.59375 26.953125 
Q 35.25 24.703125 29.984375 24.703125 
Q 19.046875 24.703125 12.671875 31.3125 
Q 6.296875 37.9375 6.296875 49.421875 
Q 6.296875 60.640625 12.9375 67.421875 
Q 19.578125 74.21875 30.609375 74.21875 
Q 43.265625 74.21875 49.921875 64.515625 
Q 56.59375 54.828125 56.59375 36.375 
Q 56.59375 19.140625 48.40625 8.859375 
Q 40.234375 -1.421875 26.421875 -1.421875 
Q 22.703125 -1.421875 18.890625 -0.6875 
Q 15.09375 0.046875 10.984375 1.515625 
z
M 30.609375 32.421875 
Q 37.25 32.421875 41.125 36.953125 
Q 45.015625 41.5 45.015625 49.421875 
Q 45.015625 57.28125 41.125 61.84375 
Q 37.25 66.40625 30.609375 66.40625 
Q 23.96875 66.40625 20.09375 61.84375 
Q 16.21875 57.28125 16.21875 49.421875 
Q 16.21875 41.5 20.09375 36.953125 
Q 23.96875 32.421875 30.609375 32.421875 
z
" id="DejaVuSans-57"/>
       </defs>
       <use xlink:href="#DejaVuSans-48"/>
       <use x="63.623047" xlink:href="#DejaVuSans-32"/>
       <use x="95.410156" xlink:href="#DejaVuSans-100"/>
       <use x="158.886719" xlink:href="#DejaVuSans-97"/>
       <use x="220.166016" xlink:href="#DejaVuSans-121"/>
       <use x="279.345703" xlink:href="#DejaVuSans-115"/>
       <use x="331.445312" xlink:href="#DejaVuSans-44"/>
       <use x="363.232422" xlink:href="#DejaVuSans-32"/>
       <use x="395.019531" xlink:href="#DejaVuSans-48"/>
       <use x="458.642578" xlink:href="#DejaVuSans-57"/>
       <use x="522.265625" xlink:href="#DejaVuSans-58"/>
       <use x="555.957031" xlink:href="#DejaVuSans-48"/>
       <use x="619.580078" xlink:href="#DejaVuSans-48"/>
      </g>
     </g>
    </g>
    <g id="xtick_5">
     <g id="line2d_5">
      <g>
       <use style="stroke:#000000;stroke-width:0.8;" x="409.942794" xlink:href="#m098c3e4a26" y="284.4"/>
      </g>
     </g>
     <g id="text_5">
      <!-- 0 days, 12:00 -->
      <g transform="translate(375.782638 298.998438)scale(0.1 -0.1)">
       <defs>
        <path d="M 12.40625 8.296875 
L 28.515625 8.296875 
L 28.515625 63.921875 
L 10.984375 60.40625 
L 10.984375 69.390625 
L 28.421875 72.90625 
L 38.28125 72.90625 
L 38.28125 8.296875 
L 54.390625 8.296875 
L 54.390625 0 
L 12.40625 0 
z
" id="DejaVuSans-49"/>
        <path d="M 19.1875 8.296875 
L 53.609375 8.296875 
L 53.609375 0 
L 7.328125 0 
L 7.328125 8.296875 
Q 12.9375 14.109375 22.625 23.890625 
Q 32.328125 33.6875 34.8125 36.53125 
Q 39.546875 41.84375 41.421875 45.53125 
Q 43.3125 49.21875 43.3125 52.78125 
Q 43.3125 58.59375 39.234375 62.25 
Q 35.15625 65.921875 28.609375 65.921875 
Q 23.96875 65.921875 18.8125 64.3125 
Q 13.671875 62.703125 7.8125 59.421875 
L 7.8125 69.390625 
Q 13.765625 71.78125 18.9375 73 
Q 24.125 74.21875 28.421875 74.21875 
Q 39.75 74.21875 46.484375 68.546875 
Q 53.21875 62.890625 53.21875 53.421875 
Q 53.21875 48.921875 51.53125 44.890625 
Q 49.859375 40.875 45.40625 35.40625 
Q 44.1875 33.984375 37.640625 27.21875 
Q 31.109375 20.453125 19.1875 8.296875 
z
" id="DejaVuSans-50"/>
       </defs>
       <use xlink:href="#DejaVuSans-48"/>
       <use x="63.623047" xlink:href="#DejaVuSans-32"/>
       <use x="95.410156" xlink:href="#DejaVuSans-100"/>
       <use x="158.886719" xlink:href="#DejaVuSans-97"/>
       <use x="220.166016" xlink:href="#DejaVuSans-121"/>
       <use x="279.345703" xlink:href="#DejaVuSans-115"/>
       <use x="331.445312" xlink:href="#DejaVuSans-44"/>
       <use x="363.232422" xlink:href="#DejaVuSans-32"/>
       <use x="395.019531" xlink:href="#DejaVuSans-49"/>
       <use x="458.642578" xlink:href="#DejaVuSans-50"/>
       <use x="522.265625" xlink:href="#DejaVuSans-58"/>
       <use x="555.957031" xlink:href="#DejaVuSans-48"/>
       <use x="619.580078" xlink:href="#DejaVuSans-48"/>
      </g>
     </g>
    </g>
    <g id="xtick_6">
     <g id="line2d_6">
      <g>
       <use style="stroke:#000000;stroke-width:0.8;" x="496.025439" xlink:href="#m098c3e4a26" y="284.4"/>
      </g>
     </g>
     <g id="text_6">
      <!-- 0 days, 15:00 -->
      <g transform="translate(461.865283 298.998438)scale(0.1 -0.1)">
       <defs>
        <path d="M 10.796875 72.90625 
L 49.515625 72.90625 
L 49.515625 64.59375 
L 19.828125 64.59375 
L 19.828125 46.734375 
Q 21.96875 47.46875 24.109375 47.828125 
Q 26.265625 48.1875 28.421875 48.1875 
Q 40.625 48.1875 47.75 41.5 
Q 54.890625 34.8125 54.890625 23.390625 
Q 54.890625 11.625 47.5625 5.09375 
Q 40.234375 -1.421875 26.90625 -1.421875 
Q 22.3125 -1.421875 17.546875 -0.640625 
Q 12.796875 0.140625 7.71875 1.703125 
L 7.71875 11.625 
Q 12.109375 9.234375 16.796875 8.0625 
Q 21.484375 6.890625 26.703125 6.890625 
Q 35.15625 6.890625 40.078125 11.328125 
Q 45.015625 15.765625 45.015625 23.390625 
Q 45.015625 31 40.078125 35.4375 
Q 35.15625 39.890625 26.703125 39.890625 
Q 22.75 39.890625 18.8125 39.015625 
Q 14.890625 38.140625 10.796875 36.28125 
z
" id="DejaVuSans-53"/>
       </defs>
       <use xlink:href="#DejaVuSans-48"/>
       <use x="63.623047" xlink:href="#DejaVuSans-32"/>
       <use x="95.410156" xlink:href="#DejaVuSans-100"/>
       <use x="158.886719" xlink:href="#DejaVuSans-97"/>
       <use x="220.166016" xlink:href="#DejaVuSans-121"/>
       <use x="279.345703" xlink:href="#DejaVuSans-115"/>
       <use x="331.445312" xlink:href="#DejaVuSans-44"/>
       <use x="363.232422" xlink:href="#DejaVuSans-32"/>
       <use x="395.019531" xlink:href="#DejaVuSans-49"/>
       <use x="458.642578" xlink:href="#DejaVuSans-53"/>
       <use x="522.265625" xlink:href="#DejaVuSans-58"/>
       <use x="555.957031" xlink:href="#DejaVuSans-48"/>
       <use x="619.580078" xlink:href="#DejaVuSans-48"/>
      </g>
     </g>
    </g>
    <g id="xtick_7">
     <g id="line2d_7">
      <g>
       <use style="stroke:#000000;stroke-width:0.8;" x="582.108084" xlink:href="#m098c3e4a26" y="284.4"/>
      </g>
     </g>
     <g id="text_7">
      <!-- 0 days, 18:00 -->
      <g transform="translate(547.947927 298.998438)scale(0.1 -0.1)">
       <defs>
        <path d="M 31.78125 34.625 
Q 24.75 34.625 20.71875 30.859375 
Q 16.703125 27.09375 16.703125 20.515625 
Q 16.703125 13.921875 20.71875 10.15625 
Q 24.75 6.390625 31.78125 6.390625 
Q 38.8125 6.390625 42.859375 10.171875 
Q 46.921875 13.96875 46.921875 20.515625 
Q 46.921875 27.09375 42.890625 30.859375 
Q 38.875 34.625 31.78125 34.625 
z
M 21.921875 38.8125 
Q 15.578125 40.375 12.03125 44.71875 
Q 8.5 49.078125 8.5 55.328125 
Q 8.5 64.0625 14.71875 69.140625 
Q 20.953125 74.21875 31.78125 74.21875 
Q 42.671875 74.21875 48.875 69.140625 
Q 55.078125 64.0625 55.078125 55.328125 
Q 55.078125 49.078125 51.53125 44.71875 
Q 48 40.375 41.703125 38.8125 
Q 48.828125 37.15625 52.796875 32.3125 
Q 56.78125 27.484375 56.78125 20.515625 
Q 56.78125 9.90625 50.3125 4.234375 
Q 43.84375 -1.421875 31.78125 -1.421875 
Q 19.734375 -1.421875 13.25 4.234375 
Q 6.78125 9.90625 6.78125 20.515625 
Q 6.78125 27.484375 10.78125 32.3125 
Q 14.796875 37.15625 21.921875 38.8125 
z
M 18.3125 54.390625 
Q 18.3125 48.734375 21.84375 45.5625 
Q 25.390625 42.390625 31.78125 42.390625 
Q 38.140625 42.390625 41.71875 45.5625 
Q 45.3125 48.734375 45.3125 54.390625 
Q 45.3125 60.0625 41.71875 63.234375 
Q 38.140625 66.40625 31.78125 66.40625 
Q 25.390625 66.40625 21.84375 63.234375 
Q 18.3125 60.0625 18.3125 54.390625 
z
" id="DejaVuSans-56"/>
       </defs>
       <use xlink:href="#DejaVuSans-48"/>
       <use x="63.623047" xlink:href="#DejaVuSans-32"/>
       <use x="95.410156" xlink:href="#DejaVuSans-100"/>
       <use x="158.886719" xlink:href="#DejaVuSans-97"/>
       <use x="220.166016" xlink:href="#DejaVuSans-121"/>
       <use x="279.345703" xlink:href="#DejaVuSans-115"/>
       <use x="331.445312" xlink:href="#DejaVuSans-44"/>
       <use x="363.232422" xlink:href="#DejaVuSans-32"/>
       <use x="395.019531" xlink:href="#DejaVuSans-49"/>
       <use x="458.642578" xlink:href="#DejaVuSans-56"/>
       <use x="522.265625" xlink:href="#DejaVuSans-58"/>
       <use x="555.957031" xlink:href="#DejaVuSans-48"/>
       <use x="619.580078" xlink:href="#DejaVuSans-48"/>
      </g>
     </g>
    </g>
    <g id="xtick_8">
     <g id="line2d_8">
      <g>
       <use style="stroke:#000000;stroke-width:0.8;" x="668.190728" xlink:href="#m098c3e4a26" y="284.4"/>
      </g>
     </g>
     <g id="text_8">
      <!-- 0 days, 21:00 -->
      <g transform="translate(634.030572 298.998438)scale(0.1 -0.1)">
       <use xlink:href="#DejaVuSans-48"/>
       <use x="63.623047" xlink:href="#DejaVuSans-32"/>
       <use x="95.410156" xlink:href="#DejaVuSans-100"/>
       <use x="158.886719" xlink:href="#DejaVuSans-97"/>
       <use x="220.166016" xlink:href="#DejaVuSans-121"/>
       <use x="279.345703" xlink:href="#DejaVuSans-115"/>
       <use x="331.445312" xlink:href="#DejaVuSans-44"/>
       <use x="363.232422" xlink:href="#DejaVuSans-32"/>
       <use x="395.019531" xlink:href="#DejaVuSans-50"/>
       <use x="458.642578" xlink:href="#DejaVuSans-49"/>
       <use x="522.265625" xlink:href="#DejaVuSans-58"/>
       <use x="555.957031" xlink:href="#DejaVuSans-48"/>
       <use x="619.580078" xlink:href="#DejaVuSans-48"/>
      </g>
     </g>
    </g>
    <g id="xtick_9">
     <g id="line2d_9">
      <g>
       <use style="stroke:#000000;stroke-width:0.8;" x="754.273373" xlink:href="#m098c3e4a26" y="284.4"/>
      </g>
     </g>
     <g id="text_9">
      <!-- 1 day, 00:00 -->
      <g transform="translate(722.717904 298.998438)scale(0.1 -0.1)">
       <use xlink:href="#DejaVuSans-49"/>
       <use x="63.623047" xlink:href="#DejaVuSans-32"/>
       <use x="95.410156" xlink:href="#DejaVuSans-100"/>
       <use x="158.886719" xlink:href="#DejaVuSans-97"/>
       <use x="220.166016" xlink:href="#DejaVuSans-121"/>
       <use x="279.345703" xlink:href="#DejaVuSans-44"/>
       <use x="311.132812" xlink:href="#DejaVuSans-32"/>
       <use x="342.919922" xlink:href="#DejaVuSans-48"/>
       <use x="406.542969" xlink:href="#DejaVuSans-48"/>
       <use x="470.166016" xlink:href="#DejaVuSans-58"/>
       <use x="503.857422" xlink:href="#DejaVuSans-48"/>
       <use x="567.480469" xlink:href="#DejaVuSans-48"/>
      </g>
     </g>
    </g>
   </g>
   <g id="matplotlib.axis_2">
    <g id="ytick_1">
     <g id="line2d_10">
      <defs>
       <path d="M 0 0 
L -3.5 0 
" id="mdab1e1dc97" style="stroke:#000000;stroke-width:0.8;"/>
      </defs>
      <g>
       <use style="stroke:#000000;stroke-width:0.8;" x="30.103125" xlink:href="#mdab1e1dc97" y="275.15029"/>
      </g>
     </g>
     <g id="text_10">
      <!-- 0.0 -->
      <g transform="translate(7.2 278.949509)scale(0.1 -0.1)">
       <defs>
        <path d="M 10.6875 12.40625 
L 21 12.40625 
L 21 0 
L 10.6875 0 
z
" id="DejaVuSans-46"/>
       </defs>
       <use xlink:href="#DejaVuSans-48"/>
       <use x="63.623047" xlink:href="#DejaVuSans-46"/>
       <use x="95.410156" xlink:href="#DejaVuSans-48"/>
      </g>
     </g>
    </g>
    <g id="ytick_2">
     <g id="line2d_11">
      <g>
       <use style="stroke:#000000;stroke-width:0.8;" x="30.103125" xlink:href="#mdab1e1dc97" y="224.843398"/>
      </g>
     </g>
     <g id="text_11">
      <!-- 0.2 -->
      <g transform="translate(7.2 228.642617)scale(0.1 -0.1)">
       <use xlink:href="#DejaVuSans-48"/>
       <use x="63.623047" xlink:href="#DejaVuSans-46"/>
       <use x="95.410156" xlink:href="#DejaVuSans-50"/>
      </g>
     </g>
    </g>
    <g id="ytick_3">
     <g id="line2d_12">
      <g>
       <use style="stroke:#000000;stroke-width:0.8;" x="30.103125" xlink:href="#mdab1e1dc97" y="174.536506"/>
      </g>
     </g>
     <g id="text_12">
      <!-- 0.4 -->
      <g transform="translate(7.2 178.335725)scale(0.1 -0.1)">
       <defs>
        <path d="M 37.796875 64.3125 
L 12.890625 25.390625 
L 37.796875 25.390625 
z
M 35.203125 72.90625 
L 47.609375 72.90625 
L 47.609375 25.390625 
L 58.015625 25.390625 
L 58.015625 17.1875 
L 47.609375 17.1875 
L 47.609375 0 
L 37.796875 0 
L 37.796875 17.1875 
L 4.890625 17.1875 
L 4.890625 26.703125 
z
" id="DejaVuSans-52"/>
       </defs>
       <use xlink:href="#DejaVuSans-48"/>
       <use x="63.623047" xlink:href="#DejaVuSans-46"/>
       <use x="95.410156" xlink:href="#DejaVuSans-52"/>
      </g>
     </g>
    </g>
    <g id="ytick_4">
     <g id="line2d_13">
      <g>
       <use style="stroke:#000000;stroke-width:0.8;" x="30.103125" xlink:href="#mdab1e1dc97" y="124.229614"/>
      </g>
     </g>
     <g id="text_13">
      <!-- 0.6 -->
      <g transform="translate(7.2 128.028832)scale(0.1 -0.1)">
       <use xlink:href="#DejaVuSans-48"/>
       <use x="63.623047" xlink:href="#DejaVuSans-46"/>
       <use x="95.410156" xlink:href="#DejaVuSans-54"/>
      </g>
     </g>
    </g>
    <g id="ytick_5">
     <g id="line2d_14">
      <g>
       <use style="stroke:#000000;stroke-width:0.8;" x="30.103125" xlink:href="#mdab1e1dc97" y="73.922721"/>
      </g>
     </g>
     <g id="text_14">
      <!-- 0.8 -->
      <g transform="translate(7.2 77.72194)scale(0.1 -0.1)">
       <use xlink:href="#DejaVuSans-48"/>
       <use x="63.623047" xlink:href="#DejaVuSans-46"/>
       <use x="95.410156" xlink:href="#DejaVuSans-56"/>
      </g>
     </g>
    </g>
    <g id="ytick_6">
     <g id="line2d_15">
      <g>
       <use style="stroke:#000000;stroke-width:0.8;" x="30.103125" xlink:href="#mdab1e1dc97" y="23.615829"/>
      </g>
     </g>
     <g id="text_15">
      <!-- 1.0 -->
      <g transform="translate(7.2 27.415048)scale(0.1 -0.1)">
       <use xlink:href="#DejaVuSans-49"/>
       <use x="63.623047" xlink:href="#DejaVuSans-46"/>
       <use x="95.410156" xlink:href="#DejaVuSans-48"/>
      </g>
     </g>
    </g>
   </g>
   <g id="line2d_16">
    <path clip-path="url(#p840cd62136)" d="M 65.612216 19.8 
L 72.78577 33.764508 
L 79.959323 47.541022 
L 87.132877 51.319402 
L 94.306431 62.277704 
L 101.479985 77.47654 
L 108.653538 86.595207 
L 115.827092 88.351227 
L 123.000646 102.741244 
L 130.174199 106.812014 
L 137.347753 116.918519 
L 144.521307 121.915999 
L 151.694861 132.24897 
L 158.868414 141.851183 
L 166.041968 145.702982 
L 173.215522 149.605804 
L 180.389075 157.824468 
L 187.562629 165.283757 
L 194.736183 167.81478 
L 201.909737 172.188316 
L 209.08329 178.196667 
L 216.256844 180.411151 
L 223.430398 188.895313 
L 230.603951 190.60821 
L 237.777505 198.724267 
L 244.951059 197.312454 
L 252.124613 204.387446 
L 259.298166 207.609174 
L 266.47172 212.857168 
L 273.645274 212.088433 
L 280.818827 215.905549 
L 287.992381 216.790691 
L 295.165935 223.648021 
L 302.339489 221.347038 
L 309.513042 223.996519 
L 316.686596 226.339716 
L 323.86015 232.124791 
L 331.033704 228.192949 
L 338.207257 229.25158 
L 345.380811 230.612314 
L 352.554365 239.707777 
L 359.727918 240.611992 
L 366.901472 236.015621 
L 374.075026 237.394276 
L 381.24858 238.023621 
L 388.422133 238.794099 
L 395.595687 249.598565 
L 402.769241 250.399857 
L 409.942794 251.325323 
L 417.116348 249.152561 
L 424.289902 244.94565 
L 431.463456 246.224507 
L 438.637009 247.225083 
L 445.810563 253.398833 
L 452.984117 248.893975 
L 460.15767 251.837607 
L 467.331224 254.069589 
L 474.504778 257.446651 
L 481.678332 259.857356 
L 488.851885 257.696881 
L 496.025439 256.255445 
L 503.198993 255.357496 
L 510.372546 262.570554 
L 517.5461 259.051292 
L 524.719654 262.737537 
L 531.893208 258.451002 
L 539.066761 256.695693 
L 546.240315 259.673312 
L 553.413869 264.469184 
L 560.587423 262.902963 
L 567.760976 258.258534 
L 574.93453 259.066735 
L 582.108084 259.95775 
L 589.281637 260.652184 
L 596.455191 261.504973 
L 603.628745 265.496558 
L 610.802299 265.646309 
L 617.975852 267.377358 
L 625.149406 261.962041 
L 632.32296 269.568499 
L 639.496513 260.661756 
L 646.670067 269.956839 
L 653.843621 269.749039 
L 661.017175 262.29458 
L 668.190728 262.865275 
L 675.364282 268.377559 
L 682.537836 263.380377 
L 689.711389 264.03636 
L 696.884943 269.079803 
L 704.058497 271.455714 
L 711.232051 267.809324 
L 718.405604 270.830258 
L 725.579158 263.142951 
L 732.752712 266.792835 
L 739.926265 269.746471 
L 747.099819 270.837783 
L 754.273373 270.768815 
L 761.446927 269.448054 
L 768.62048 270.672706 
L 775.794034 271.8 
" style="fill:none;stroke:#1f77b4;stroke-linecap:square;stroke-width:1.5;"/>
   </g>
   <g id="patch_3">
    <path d="M 30.103125 284.4 
L 30.103125 7.2 
" style="fill:none;stroke:#000000;stroke-linecap:square;stroke-linejoin:miter;stroke-width:0.8;"/>
   </g>
   <g id="patch_4">
    <path d="M 811.303125 284.4 
L 811.303125 7.2 
" style="fill:none;stroke:#000000;stroke-linecap:square;stroke-linejoin:miter;stroke-width:0.8;"/>
   </g>
   <g id="patch_5">
    <path d="M 30.103125 284.4 
L 811.303125 284.4 
" style="fill:none;stroke:#000000;stroke-linecap:square;stroke-linejoin:miter;stroke-width:0.8;"/>
   </g>
   <g id="patch_6">
    <path d="M 30.103125 7.2 
L 811.303125 7.2 
" style="fill:none;stroke:#000000;stroke-linecap:square;stroke-linejoin:miter;stroke-width:0.8;"/>
   </g>
  </g>
 </g>
 <defs>
  <clipPath id="p840cd62136">
   <rect height="277.2" width="781.2" x="30.103125" y="7.2"/>
  </clipPath>
 </defs>
</svg>
