<?xml version="1.0" encoding="utf-8" standalone="no"?>
<!DOCTYPE svg PUBLIC "-//W3C//DTD SVG 1.1//EN"
  "http://www.w3.org/Graphics/SVG/1.1/DTD/svg11.dtd">
<!-- Created with matplotlib (https://matplotlib.org/) -->
<svg height="296.39952pt" version="1.1" viewBox="0 0 584.39952 296.39952" width="584.39952pt" xmlns="http://www.w3.org/2000/svg" xmlns:xlink="http://www.w3.org/1999/xlink">
 <metadata>
  <rdf:RDF xmlns:cc="http://creativecommons.org/ns#" xmlns:dc="http://purl.org/dc/elements/1.1/" xmlns:rdf="http://www.w3.org/1999/02/22-rdf-syntax-ns#">
   <cc:Work>
    <dc:type rdf:resource="http://purl.org/dc/dcmitype/StillImage"/>
    <dc:date>2021-03-01T22:30:45.746560</dc:date>
    <dc:format>image/svg+xml</dc:format>
    <dc:creator>
     <cc:Agent>
      <dc:title>Matplotlib v3.3.4, https://matplotlib.org/</dc:title>
     </cc:Agent>
    </dc:creator>
   </cc:Work>
  </rdf:RDF>
 </metadata>
 <defs>
  <style type="text/css">*{stroke-linecap:butt;stroke-linejoin:round;}</style>
 </defs>
 <g id="figure_1">
  <g id="patch_1">
   <path d="M 0 296.39952 
L 584.39952 296.39952 
L 584.39952 0 
L 0 0 
z
" style="fill:#ffffff;"/>
  </g>
  <g id="axes_1">
   <g id="patch_2">
    <path d="M 35.304688 259.84327 
L 577.19952 259.84327 
L 577.19952 22.318125 
L 35.304688 22.318125 
z
" style="fill:#ffffff;"/>
   </g>
   <g id="matplotlib.axis_1">
    <g id="xtick_1">
     <g id="line2d_1">
      <defs>
       <path d="M 0 0 
L 0 3.5 
" id="mf6fc2d838f" style="stroke:#000000;stroke-width:0.8;"/>
      </defs>
      <g>
       <use style="stroke:#000000;stroke-width:0.8;" x="59.936271" xlink:href="#mf6fc2d838f" y="259.84327"/>
      </g>
     </g>
     <g id="text_1">
      <!-- 0:00 -->
      <g transform="translate(48.708146 274.441707)scale(0.1 -0.1)">
       <defs>
        <path d="M 31.78125 66.40625 
Q 24.171875 66.40625 20.328125 58.90625 
Q 16.5 51.421875 16.5 36.375 
Q 16.5 21.390625 20.328125 13.890625 
Q 24.171875 6.390625 31.78125 6.390625 
Q 39.453125 6.390625 43.28125 13.890625 
Q 47.125 21.390625 47.125 36.375 
Q 47.125 51.421875 43.28125 58.90625 
Q 39.453125 66.40625 31.78125 66.40625 
z
M 31.78125 74.21875 
Q 44.046875 74.21875 50.515625 64.515625 
Q 56.984375 54.828125 56.984375 36.375 
Q 56.984375 17.96875 50.515625 8.265625 
Q 44.046875 -1.421875 31.78125 -1.421875 
Q 19.53125 -1.421875 13.0625 8.265625 
Q 6.59375 17.96875 6.59375 36.375 
Q 6.59375 54.828125 13.0625 64.515625 
Q 19.53125 74.21875 31.78125 74.21875 
z
" id="DejaVuSans-48"/>
        <path d="M 11.71875 12.40625 
L 22.015625 12.40625 
L 22.015625 0 
L 11.71875 0 
z
M 11.71875 51.703125 
L 22.015625 51.703125 
L 22.015625 39.3125 
L 11.71875 39.3125 
z
" id="DejaVuSans-58"/>
       </defs>
       <use xlink:href="#DejaVuSans-48"/>
       <use x="63.623047" xlink:href="#DejaVuSans-58"/>
       <use x="97.314453" xlink:href="#DejaVuSans-48"/>
       <use x="160.9375" xlink:href="#DejaVuSans-48"/>
      </g>
     </g>
    </g>
    <g id="xtick_2">
     <g id="line2d_2">
      <g>
       <use style="stroke:#000000;stroke-width:0.8;" x="121.600874" xlink:href="#mf6fc2d838f" y="259.84327"/>
      </g>
     </g>
     <g id="text_2">
      <!-- 6:00 -->
      <g transform="translate(110.372749 274.441707)scale(0.1 -0.1)">
       <defs>
        <path d="M 33.015625 40.375 
Q 26.375 40.375 22.484375 35.828125 
Q 18.609375 31.296875 18.609375 23.390625 
Q 18.609375 15.53125 22.484375 10.953125 
Q 26.375 6.390625 33.015625 6.390625 
Q 39.65625 6.390625 43.53125 10.953125 
Q 47.40625 15.53125 47.40625 23.390625 
Q 47.40625 31.296875 43.53125 35.828125 
Q 39.65625 40.375 33.015625 40.375 
z
M 52.59375 71.296875 
L 52.59375 62.3125 
Q 48.875 64.0625 45.09375 64.984375 
Q 41.3125 65.921875 37.59375 65.921875 
Q 27.828125 65.921875 22.671875 59.328125 
Q 17.53125 52.734375 16.796875 39.40625 
Q 19.671875 43.65625 24.015625 45.921875 
Q 28.375 48.1875 33.59375 48.1875 
Q 44.578125 48.1875 50.953125 41.515625 
Q 57.328125 34.859375 57.328125 23.390625 
Q 57.328125 12.15625 50.6875 5.359375 
Q 44.046875 -1.421875 33.015625 -1.421875 
Q 20.359375 -1.421875 13.671875 8.265625 
Q 6.984375 17.96875 6.984375 36.375 
Q 6.984375 53.65625 15.1875 63.9375 
Q 23.390625 74.21875 37.203125 74.21875 
Q 40.921875 74.21875 44.703125 73.484375 
Q 48.484375 72.75 52.59375 71.296875 
z
" id="DejaVuSans-54"/>
       </defs>
       <use xlink:href="#DejaVuSans-54"/>
       <use x="63.623047" xlink:href="#DejaVuSans-58"/>
       <use x="97.314453" xlink:href="#DejaVuSans-48"/>
       <use x="160.9375" xlink:href="#DejaVuSans-48"/>
      </g>
     </g>
    </g>
    <g id="xtick_3">
     <g id="line2d_3">
      <g>
       <use style="stroke:#000000;stroke-width:0.8;" x="183.265478" xlink:href="#mf6fc2d838f" y="259.84327"/>
      </g>
     </g>
     <g id="text_3">
      <!-- 12:00 -->
      <g transform="translate(168.856103 274.441707)scale(0.1 -0.1)">
       <defs>
        <path d="M 12.40625 8.296875 
L 28.515625 8.296875 
L 28.515625 63.921875 
L 10.984375 60.40625 
L 10.984375 69.390625 
L 28.421875 72.90625 
L 38.28125 72.90625 
L 38.28125 8.296875 
L 54.390625 8.296875 
L 54.390625 0 
L 12.40625 0 
z
" id="DejaVuSans-49"/>
        <path d="M 19.1875 8.296875 
L 53.609375 8.296875 
L 53.609375 0 
L 7.328125 0 
L 7.328125 8.296875 
Q 12.9375 14.109375 22.625 23.890625 
Q 32.328125 33.6875 34.8125 36.53125 
Q 39.546875 41.84375 41.421875 45.53125 
Q 43.3125 49.21875 43.3125 52.78125 
Q 43.3125 58.59375 39.234375 62.25 
Q 35.15625 65.921875 28.609375 65.921875 
Q 23.96875 65.921875 18.8125 64.3125 
Q 13.671875 62.703125 7.8125 59.421875 
L 7.8125 69.390625 
Q 13.765625 71.78125 18.9375 73 
Q 24.125 74.21875 28.421875 74.21875 
Q 39.75 74.21875 46.484375 68.546875 
Q 53.21875 62.890625 53.21875 53.421875 
Q 53.21875 48.921875 51.53125 44.890625 
Q 49.859375 40.875 45.40625 35.40625 
Q 44.1875 33.984375 37.640625 27.21875 
Q 31.109375 20.453125 19.1875 8.296875 
z
" id="DejaVuSans-50"/>
       </defs>
       <use xlink:href="#DejaVuSans-49"/>
       <use x="63.623047" xlink:href="#DejaVuSans-50"/>
       <use x="127.246094" xlink:href="#DejaVuSans-58"/>
       <use x="160.9375" xlink:href="#DejaVuSans-48"/>
       <use x="224.560547" xlink:href="#DejaVuSans-48"/>
      </g>
     </g>
    </g>
    <g id="xtick_4">
     <g id="line2d_4">
      <g>
       <use style="stroke:#000000;stroke-width:0.8;" x="244.930081" xlink:href="#mf6fc2d838f" y="259.84327"/>
      </g>
     </g>
     <g id="text_4">
      <!-- 18:00 -->
      <g transform="translate(230.520706 274.441707)scale(0.1 -0.1)">
       <defs>
        <path d="M 31.78125 34.625 
Q 24.75 34.625 20.71875 30.859375 
Q 16.703125 27.09375 16.703125 20.515625 
Q 16.703125 13.921875 20.71875 10.15625 
Q 24.75 6.390625 31.78125 6.390625 
Q 38.8125 6.390625 42.859375 10.171875 
Q 46.921875 13.96875 46.921875 20.515625 
Q 46.921875 27.09375 42.890625 30.859375 
Q 38.875 34.625 31.78125 34.625 
z
M 21.921875 38.8125 
Q 15.578125 40.375 12.03125 44.71875 
Q 8.5 49.078125 8.5 55.328125 
Q 8.5 64.0625 14.71875 69.140625 
Q 20.953125 74.21875 31.78125 74.21875 
Q 42.671875 74.21875 48.875 69.140625 
Q 55.078125 64.0625 55.078125 55.328125 
Q 55.078125 49.078125 51.53125 44.71875 
Q 48 40.375 41.703125 38.8125 
Q 48.828125 37.15625 52.796875 32.3125 
Q 56.78125 27.484375 56.78125 20.515625 
Q 56.78125 9.90625 50.3125 4.234375 
Q 43.84375 -1.421875 31.78125 -1.421875 
Q 19.734375 -1.421875 13.25 4.234375 
Q 6.78125 9.90625 6.78125 20.515625 
Q 6.78125 27.484375 10.78125 32.3125 
Q 14.796875 37.15625 21.921875 38.8125 
z
M 18.3125 54.390625 
Q 18.3125 48.734375 21.84375 45.5625 
Q 25.390625 42.390625 31.78125 42.390625 
Q 38.140625 42.390625 41.71875 45.5625 
Q 45.3125 48.734375 45.3125 54.390625 
Q 45.3125 60.0625 41.71875 63.234375 
Q 38.140625 66.40625 31.78125 66.40625 
Q 25.390625 66.40625 21.84375 63.234375 
Q 18.3125 60.0625 18.3125 54.390625 
z
" id="DejaVuSans-56"/>
       </defs>
       <use xlink:href="#DejaVuSans-49"/>
       <use x="63.623047" xlink:href="#DejaVuSans-56"/>
       <use x="127.246094" xlink:href="#DejaVuSans-58"/>
       <use x="160.9375" xlink:href="#DejaVuSans-48"/>
       <use x="224.560547" xlink:href="#DejaVuSans-48"/>
      </g>
     </g>
    </g>
    <g id="xtick_5">
     <g id="line2d_5">
      <g>
       <use style="stroke:#000000;stroke-width:0.8;" x="306.594685" xlink:href="#mf6fc2d838f" y="259.84327"/>
      </g>
     </g>
     <g id="text_5">
      <!-- 24:00 -->
      <g transform="translate(292.18531 274.441707)scale(0.1 -0.1)">
       <defs>
        <path d="M 37.796875 64.3125 
L 12.890625 25.390625 
L 37.796875 25.390625 
z
M 35.203125 72.90625 
L 47.609375 72.90625 
L 47.609375 25.390625 
L 58.015625 25.390625 
L 58.015625 17.1875 
L 47.609375 17.1875 
L 47.609375 0 
L 37.796875 0 
L 37.796875 17.1875 
L 4.890625 17.1875 
L 4.890625 26.703125 
z
" id="DejaVuSans-52"/>
       </defs>
       <use xlink:href="#DejaVuSans-50"/>
       <use x="63.623047" xlink:href="#DejaVuSans-52"/>
       <use x="127.246094" xlink:href="#DejaVuSans-58"/>
       <use x="160.9375" xlink:href="#DejaVuSans-48"/>
       <use x="224.560547" xlink:href="#DejaVuSans-48"/>
      </g>
     </g>
    </g>
    <g id="xtick_6">
     <g id="line2d_6">
      <g>
       <use style="stroke:#000000;stroke-width:0.8;" x="368.259288" xlink:href="#mf6fc2d838f" y="259.84327"/>
      </g>
     </g>
     <g id="text_6">
      <!-- 30:00 -->
      <g transform="translate(353.849913 274.441707)scale(0.1 -0.1)">
       <defs>
        <path d="M 40.578125 39.3125 
Q 47.65625 37.796875 51.625 33 
Q 55.609375 28.21875 55.609375 21.1875 
Q 55.609375 10.40625 48.1875 4.484375 
Q 40.765625 -1.421875 27.09375 -1.421875 
Q 22.515625 -1.421875 17.65625 -0.515625 
Q 12.796875 0.390625 7.625 2.203125 
L 7.625 11.71875 
Q 11.71875 9.328125 16.59375 8.109375 
Q 21.484375 6.890625 26.8125 6.890625 
Q 36.078125 6.890625 40.9375 10.546875 
Q 45.796875 14.203125 45.796875 21.1875 
Q 45.796875 27.640625 41.28125 31.265625 
Q 36.765625 34.90625 28.71875 34.90625 
L 20.21875 34.90625 
L 20.21875 43.015625 
L 29.109375 43.015625 
Q 36.375 43.015625 40.234375 45.921875 
Q 44.09375 48.828125 44.09375 54.296875 
Q 44.09375 59.90625 40.109375 62.90625 
Q 36.140625 65.921875 28.71875 65.921875 
Q 24.65625 65.921875 20.015625 65.03125 
Q 15.375 64.15625 9.8125 62.3125 
L 9.8125 71.09375 
Q 15.4375 72.65625 20.34375 73.4375 
Q 25.25 74.21875 29.59375 74.21875 
Q 40.828125 74.21875 47.359375 69.109375 
Q 53.90625 64.015625 53.90625 55.328125 
Q 53.90625 49.265625 50.4375 45.09375 
Q 46.96875 40.921875 40.578125 39.3125 
z
" id="DejaVuSans-51"/>
       </defs>
       <use xlink:href="#DejaVuSans-51"/>
       <use x="63.623047" xlink:href="#DejaVuSans-48"/>
       <use x="127.246094" xlink:href="#DejaVuSans-58"/>
       <use x="160.9375" xlink:href="#DejaVuSans-48"/>
       <use x="224.560547" xlink:href="#DejaVuSans-48"/>
      </g>
     </g>
    </g>
    <g id="xtick_7">
     <g id="line2d_7">
      <g>
       <use style="stroke:#000000;stroke-width:0.8;" x="429.923892" xlink:href="#mf6fc2d838f" y="259.84327"/>
      </g>
     </g>
     <g id="text_7">
      <!-- 36:00 -->
      <g transform="translate(415.514517 274.441707)scale(0.1 -0.1)">
       <use xlink:href="#DejaVuSans-51"/>
       <use x="63.623047" xlink:href="#DejaVuSans-54"/>
       <use x="127.246094" xlink:href="#DejaVuSans-58"/>
       <use x="160.9375" xlink:href="#DejaVuSans-48"/>
       <use x="224.560547" xlink:href="#DejaVuSans-48"/>
      </g>
     </g>
    </g>
    <g id="xtick_8">
     <g id="line2d_8">
      <g>
       <use style="stroke:#000000;stroke-width:0.8;" x="491.588495" xlink:href="#mf6fc2d838f" y="259.84327"/>
      </g>
     </g>
     <g id="text_8">
      <!-- 42:00 -->
      <g transform="translate(477.17912 274.441707)scale(0.1 -0.1)">
       <use xlink:href="#DejaVuSans-52"/>
       <use x="63.623047" xlink:href="#DejaVuSans-50"/>
       <use x="127.246094" xlink:href="#DejaVuSans-58"/>
       <use x="160.9375" xlink:href="#DejaVuSans-48"/>
       <use x="224.560547" xlink:href="#DejaVuSans-48"/>
      </g>
     </g>
    </g>
    <g id="xtick_9">
     <g id="line2d_9">
      <g>
       <use style="stroke:#000000;stroke-width:0.8;" x="553.253099" xlink:href="#mf6fc2d838f" y="259.84327"/>
      </g>
     </g>
     <g id="text_9">
      <!-- 48:00 -->
      <g transform="translate(538.843724 274.441707)scale(0.1 -0.1)">
       <use xlink:href="#DejaVuSans-52"/>
       <use x="63.623047" xlink:href="#DejaVuSans-56"/>
       <use x="127.246094" xlink:href="#DejaVuSans-58"/>
       <use x="160.9375" xlink:href="#DejaVuSans-48"/>
       <use x="224.560547" xlink:href="#DejaVuSans-48"/>
      </g>
     </g>
    </g>
    <g id="text_10">
     <!-- 100 days -->
     <g transform="translate(531.329207 287.119832)scale(0.1 -0.1)">
      <defs>
       <path id="DejaVuSans-32"/>
       <path d="M 45.40625 46.390625 
L 45.40625 75.984375 
L 54.390625 75.984375 
L 54.390625 0 
L 45.40625 0 
L 45.40625 8.203125 
Q 42.578125 3.328125 38.25 0.953125 
Q 33.9375 -1.421875 27.875 -1.421875 
Q 17.96875 -1.421875 11.734375 6.484375 
Q 5.515625 14.40625 5.515625 27.296875 
Q 5.515625 40.1875 11.734375 48.09375 
Q 17.96875 56 27.875 56 
Q 33.9375 56 38.25 53.625 
Q 42.578125 51.265625 45.40625 46.390625 
z
M 14.796875 27.296875 
Q 14.796875 17.390625 18.875 11.75 
Q 22.953125 6.109375 30.078125 6.109375 
Q 37.203125 6.109375 41.296875 11.75 
Q 45.40625 17.390625 45.40625 27.296875 
Q 45.40625 37.203125 41.296875 42.84375 
Q 37.203125 48.484375 30.078125 48.484375 
Q 22.953125 48.484375 18.875 42.84375 
Q 14.796875 37.203125 14.796875 27.296875 
z
" id="DejaVuSans-100"/>
       <path d="M 34.28125 27.484375 
Q 23.390625 27.484375 19.1875 25 
Q 14.984375 22.515625 14.984375 16.5 
Q 14.984375 11.71875 18.140625 8.90625 
Q 21.296875 6.109375 26.703125 6.109375 
Q 34.1875 6.109375 38.703125 11.40625 
Q 43.21875 16.703125 43.21875 25.484375 
L 43.21875 27.484375 
z
M 52.203125 31.203125 
L 52.203125 0 
L 43.21875 0 
L 43.21875 8.296875 
Q 40.140625 3.328125 35.546875 0.953125 
Q 30.953125 -1.421875 24.3125 -1.421875 
Q 15.921875 -1.421875 10.953125 3.296875 
Q 6 8.015625 6 15.921875 
Q 6 25.140625 12.171875 29.828125 
Q 18.359375 34.515625 30.609375 34.515625 
L 43.21875 34.515625 
L 43.21875 35.40625 
Q 43.21875 41.609375 39.140625 45 
Q 35.0625 48.390625 27.6875 48.390625 
Q 23 48.390625 18.546875 47.265625 
Q 14.109375 46.140625 10.015625 43.890625 
L 10.015625 52.203125 
Q 14.9375 54.109375 19.578125 55.046875 
Q 24.21875 56 28.609375 56 
Q 40.484375 56 46.34375 49.84375 
Q 52.203125 43.703125 52.203125 31.203125 
z
" id="DejaVuSans-97"/>
       <path d="M 32.171875 -5.078125 
Q 28.375 -14.84375 24.75 -17.8125 
Q 21.140625 -20.796875 15.09375 -20.796875 
L 7.90625 -20.796875 
L 7.90625 -13.28125 
L 13.1875 -13.28125 
Q 16.890625 -13.28125 18.9375 -11.515625 
Q 21 -9.765625 23.484375 -3.21875 
L 25.09375 0.875 
L 2.984375 54.6875 
L 12.5 54.6875 
L 29.59375 11.921875 
L 46.6875 54.6875 
L 56.203125 54.6875 
z
" id="DejaVuSans-121"/>
       <path d="M 44.28125 53.078125 
L 44.28125 44.578125 
Q 40.484375 46.53125 36.375 47.5 
Q 32.28125 48.484375 27.875 48.484375 
Q 21.1875 48.484375 17.84375 46.4375 
Q 14.5 44.390625 14.5 40.28125 
Q 14.5 37.15625 16.890625 35.375 
Q 19.28125 33.59375 26.515625 31.984375 
L 29.59375 31.296875 
Q 39.15625 29.25 43.1875 25.515625 
Q 47.21875 21.78125 47.21875 15.09375 
Q 47.21875 7.46875 41.1875 3.015625 
Q 35.15625 -1.421875 24.609375 -1.421875 
Q 20.21875 -1.421875 15.453125 -0.5625 
Q 10.6875 0.296875 5.421875 2 
L 5.421875 11.28125 
Q 10.40625 8.6875 15.234375 7.390625 
Q 20.0625 6.109375 24.8125 6.109375 
Q 31.15625 6.109375 34.5625 8.28125 
Q 37.984375 10.453125 37.984375 14.40625 
Q 37.984375 18.0625 35.515625 20.015625 
Q 33.0625 21.96875 24.703125 23.78125 
L 21.578125 24.515625 
Q 13.234375 26.265625 9.515625 29.90625 
Q 5.8125 33.546875 5.8125 39.890625 
Q 5.8125 47.609375 11.28125 51.796875 
Q 16.75 56 26.8125 56 
Q 31.78125 56 36.171875 55.265625 
Q 40.578125 54.546875 44.28125 53.078125 
z
" id="DejaVuSans-115"/>
      </defs>
      <use xlink:href="#DejaVuSans-49"/>
      <use x="63.623047" xlink:href="#DejaVuSans-48"/>
      <use x="127.246094" xlink:href="#DejaVuSans-48"/>
      <use x="190.869141" xlink:href="#DejaVuSans-32"/>
      <use x="222.65625" xlink:href="#DejaVuSans-100"/>
      <use x="286.132812" xlink:href="#DejaVuSans-97"/>
      <use x="347.412109" xlink:href="#DejaVuSans-121"/>
      <use x="406.591797" xlink:href="#DejaVuSans-115"/>
     </g>
    </g>
   </g>
   <g id="matplotlib.axis_2">
    <g id="ytick_1">
     <g id="line2d_10">
      <defs>
       <path d="M 0 0 
L -3.5 0 
" id="m1eaa9d7fd4" style="stroke:#000000;stroke-width:0.8;"/>
      </defs>
      <g>
       <use style="stroke:#000000;stroke-width:0.8;" x="35.304688" xlink:href="#m1eaa9d7fd4" y="246.384528"/>
      </g>
     </g>
     <g id="text_11">
      <!-- −10 -->
      <g transform="translate(7.2 250.183746)scale(0.1 -0.1)">
       <defs>
        <path d="M 10.59375 35.5 
L 73.1875 35.5 
L 73.1875 27.203125 
L 10.59375 27.203125 
z
" id="DejaVuSans-8722"/>
       </defs>
       <use xlink:href="#DejaVuSans-8722"/>
       <use x="83.789062" xlink:href="#DejaVuSans-49"/>
       <use x="147.412109" xlink:href="#DejaVuSans-48"/>
      </g>
     </g>
    </g>
    <g id="ytick_2">
     <g id="line2d_11">
      <g>
       <use style="stroke:#000000;stroke-width:0.8;" x="35.304688" xlink:href="#m1eaa9d7fd4" y="207.424837"/>
      </g>
     </g>
     <g id="text_12">
      <!-- 0 -->
      <g transform="translate(21.942187 211.224056)scale(0.1 -0.1)">
       <use xlink:href="#DejaVuSans-48"/>
      </g>
     </g>
    </g>
    <g id="ytick_3">
     <g id="line2d_12">
      <g>
       <use style="stroke:#000000;stroke-width:0.8;" x="35.304688" xlink:href="#m1eaa9d7fd4" y="168.465147"/>
      </g>
     </g>
     <g id="text_13">
      <!-- 10 -->
      <g transform="translate(15.579687 172.264366)scale(0.1 -0.1)">
       <use xlink:href="#DejaVuSans-49"/>
       <use x="63.623047" xlink:href="#DejaVuSans-48"/>
      </g>
     </g>
    </g>
    <g id="ytick_4">
     <g id="line2d_13">
      <g>
       <use style="stroke:#000000;stroke-width:0.8;" x="35.304688" xlink:href="#m1eaa9d7fd4" y="129.505457"/>
      </g>
     </g>
     <g id="text_14">
      <!-- 20 -->
      <g transform="translate(15.579687 133.304675)scale(0.1 -0.1)">
       <use xlink:href="#DejaVuSans-50"/>
       <use x="63.623047" xlink:href="#DejaVuSans-48"/>
      </g>
     </g>
    </g>
    <g id="ytick_5">
     <g id="line2d_14">
      <g>
       <use style="stroke:#000000;stroke-width:0.8;" x="35.304688" xlink:href="#m1eaa9d7fd4" y="90.545766"/>
      </g>
     </g>
     <g id="text_15">
      <!-- 30 -->
      <g transform="translate(15.579687 94.344985)scale(0.1 -0.1)">
       <use xlink:href="#DejaVuSans-51"/>
       <use x="63.623047" xlink:href="#DejaVuSans-48"/>
      </g>
     </g>
    </g>
    <g id="ytick_6">
     <g id="line2d_15">
      <g>
       <use style="stroke:#000000;stroke-width:0.8;" x="35.304688" xlink:href="#m1eaa9d7fd4" y="51.586076"/>
      </g>
     </g>
     <g id="text_16">
      <!-- 40 -->
      <g transform="translate(15.579687 55.385295)scale(0.1 -0.1)">
       <use xlink:href="#DejaVuSans-52"/>
       <use x="63.623047" xlink:href="#DejaVuSans-48"/>
      </g>
     </g>
    </g>
   </g>
   <g id="line2d_16">
    <path clip-path="url(#p06c98a1d8f)" d="M 59.936271 203.33678 
L 60.621433 199.962485 
L 61.306595 197.815281 
L 61.991758 191.082744 
L 62.67692 193.61235 
L 63.362082 195.476258 
L 64.732407 187.502396 
L 65.417569 190.655578 
L 66.102731 195.476408 
L 66.787893 188.229451 
L 67.473056 189.430654 
L 68.158218 186.380225 
L 68.84338 186.29637 
L 69.528542 183.508166 
L 70.213705 178.048096 
L 70.898867 182.440809 
L 72.269191 170.53169 
L 72.954354 169.744743 
L 73.639516 173.503822 
L 74.324678 169.434137 
L 75.695003 173.051039 
L 76.380165 173.281358 
L 77.75049 182.404169 
L 78.435652 187.897829 
L 79.120814 182.790757 
L 79.805976 184.806695 
L 80.491139 184.871595 
L 81.176301 183.043714 
L 81.861463 180.017411 
L 82.546625 187.360135 
L 83.231788 187.857211 
L 83.91695 189.880456 
L 84.602112 187.01636 
L 85.287274 181.769069 
L 85.972437 179.625293 
L 86.657599 180.517669 
L 87.342761 177.941531 
L 88.713086 181.908846 
L 89.398248 180.690485 
L 90.08341 192.853071 
L 90.768573 198.145655 
L 91.453735 198.701369 
L 92.138897 199.546783 
L 92.824059 199.674836 
L 93.509222 192.536857 
L 94.194384 191.164074 
L 94.879546 190.242111 
L 96.249871 178.426204 
L 96.935033 182.753102 
L 97.620195 179.543647 
L 98.99052 174.16705 
L 99.675682 178.962158 
L 100.360844 170.798536 
L 101.046006 173.148661 
L 101.731169 166.862308 
L 102.416331 167.851822 
L 103.101493 173.757639 
L 103.786656 174.21435 
L 104.471818 172.284176 
L 105.15698 175.021448 
L 105.842142 173.48227 
L 106.527305 177.85853 
L 107.212467 184.542278 
L 107.897629 185.598495 
L 108.582791 185.262504 
L 109.267954 189.510946 
L 109.953116 189.072482 
L 110.638278 192.787851 
L 111.32344 192.592183 
L 112.008603 194.474562 
L 112.693765 189.277716 
L 113.378927 187.406918 
L 114.064089 190.32783 
L 114.749252 195.473535 
L 115.434414 194.179171 
L 116.119576 195.217868 
L 116.804738 192.739245 
L 117.489901 197.096166 
L 118.175063 196.065507 
L 118.860225 195.70295 
L 119.545388 200.363301 
L 120.23055 203.865496 
L 120.915712 204.04236 
L 121.600874 206.368906 
L 122.286037 206.308055 
L 122.971199 208.673624 
L 123.656361 205.863069 
L 124.341523 204.054258 
L 125.026686 200.834008 
L 125.711848 200.471636 
L 126.39701 209.28542 
L 127.082172 205.425592 
L 128.452497 215.794919 
L 129.137659 215.190183 
L 129.822821 214.903158 
L 130.507984 210.893629 
L 131.878308 215.877556 
L 132.56347 216.615986 
L 133.248633 218.743322 
L 133.933795 212.409236 
L 134.618957 212.808751 
L 135.30412 218.380002 
L 135.989282 214.969537 
L 136.674444 215.560709 
L 137.359606 217.002097 
L 138.044769 216.947617 
L 138.729931 217.265793 
L 139.415093 213.009535 
L 140.100255 210.953311 
L 140.785418 204.167789 
L 141.47058 206.296252 
L 142.155742 199.839198 
L 142.840904 197.214757 
L 143.526067 197.545322 
L 144.211229 203.983038 
L 144.896391 201.475734 
L 145.581553 205.037931 
L 146.266716 203.674816 
L 146.951878 203.29267 
L 147.63704 199.70786 
L 148.322203 198.08617 
L 149.007365 195.40458 
L 149.692527 195.532014 
L 150.377689 193.418277 
L 151.062852 193.441216 
L 151.748014 198.746533 
L 152.433176 199.983313 
L 153.118338 209.048316 
L 153.803501 205.621599 
L 154.488663 208.294073 
L 155.858987 217.700599 
L 156.54415 221.016394 
L 157.914474 215.914327 
L 158.599636 212.660122 
L 159.284799 211.951083 
L 159.969961 207.150117 
L 160.655123 211.033781 
L 161.340285 214.167067 
L 162.025448 207.02486 
L 162.71061 206.697419 
L 164.080935 210.301259 
L 164.766097 212.731155 
L 165.451259 210.217737 
L 166.136421 217.431438 
L 166.821584 214.145802 
L 167.506746 209.884131 
L 168.191908 208.105326 
L 168.87707 207.041217 
L 169.562233 214.50909 
L 170.247395 213.874051 
L 170.932557 210.288056 
L 171.617719 212.887741 
L 172.302882 213.069534 
L 172.988044 215.460767 
L 173.673206 216.921498 
L 175.043531 212.807918 
L 175.728693 212.801977 
L 176.413855 213.221909 
L 177.099017 210.532339 
L 177.78418 204.763266 
L 178.469342 201.235637 
L 179.154504 194.884664 
L 179.839667 194.678102 
L 180.524829 201.215019 
L 181.209991 202.407366 
L 181.895153 203.036686 
L 182.580316 198.644044 
L 183.265478 198.752386 
L 183.95064 198.639361 
L 184.635802 201.907625 
L 185.320965 205.794279 
L 186.006127 205.027345 
L 186.691289 211.132417 
L 187.376451 210.833157 
L 188.061614 209.939056 
L 188.746776 205.402307 
L 189.431938 205.349475 
L 190.1171 209.758544 
L 190.802263 212.479956 
L 191.487425 217.47976 
L 192.172587 221.509564 
L 192.857749 218.164011 
L 193.542912 222.561022 
L 194.228074 220.904859 
L 194.913236 216.946004 
L 195.598399 229.17399 
L 196.283561 231.090926 
L 196.968723 224.817822 
L 197.653885 222.97122 
L 198.339048 231.976873 
L 199.02421 233.742453 
L 199.709372 236.982611 
L 201.079697 238.994895 
L 201.764859 238.587217 
L 202.450021 239.905759 
L 203.135183 244.378439 
L 203.820346 246.434427 
L 204.505508 246.905101 
L 205.19067 246.226089 
L 205.875832 248.71521 
L 206.560995 249.046672 
L 207.246157 242.708334 
L 207.931319 239.866193 
L 208.616482 238.357018 
L 209.986806 237.209 
L 210.671968 237.54937 
L 211.357131 240.39799 
L 212.042293 235.540841 
L 212.727455 232.765575 
L 213.412617 237.333845 
L 214.09778 235.623703 
L 214.782942 237.671807 
L 215.468104 235.910257 
L 216.153266 232.678755 
L 216.838429 224.485834 
L 217.523591 222.494838 
L 218.208753 214.153452 
L 218.893915 216.542587 
L 219.579078 208.532262 
L 220.26424 208.627553 
L 220.949402 202.071118 
L 222.319727 194.029177 
L 223.690051 197.55191 
L 224.375214 193.293282 
L 225.060376 198.656901 
L 225.745538 197.806911 
L 226.4307 206.344911 
L 227.115863 202.832602 
L 227.801025 195.370308 
L 228.486187 191.530745 
L 229.171349 190.779032 
L 229.856512 192.302367 
L 230.541674 195.326814 
L 231.226836 196.561903 
L 231.911998 196.4711 
L 232.597161 194.322187 
L 233.967485 183.379522 
L 234.652647 184.84499 
L 235.33781 185.365661 
L 236.022972 180.395427 
L 236.708134 178.883401 
L 237.393296 184.971806 
L 238.078459 183.011849 
L 238.763621 188.290744 
L 239.448783 183.498094 
L 240.133946 187.4515 
L 240.819108 186.576447 
L 241.50427 187.176845 
L 242.189432 195.017692 
L 242.874595 188.541877 
L 243.559757 184.851393 
L 244.244919 194.884169 
L 244.930081 193.34557 
L 245.615244 194.291775 
L 246.300406 191.396822 
L 246.985568 191.312628 
L 247.67073 184.216818 
L 248.355893 190.598192 
L 249.041055 190.228487 
L 249.726217 190.903858 
L 250.411379 188.740943 
L 251.096542 187.092051 
L 251.781704 190.247288 
L 252.466866 195.134412 
L 253.152028 192.089686 
L 253.837191 196.445754 
L 254.522353 199.758289 
L 255.892678 198.027039 
L 256.57784 197.886911 
L 257.263002 198.884974 
L 257.948164 201.150714 
L 258.633327 201.025358 
L 259.318489 202.00817 
L 260.003651 203.684287 
L 261.373976 199.164826 
L 262.059138 200.795266 
L 262.7443 194.404744 
L 263.429462 191.068124 
L 264.114625 189.099881 
L 264.799787 188.774194 
L 265.484949 187.68911 
L 266.170111 187.962257 
L 266.855274 188.103532 
L 267.540436 196.894188 
L 268.225598 202.571332 
L 268.910761 204.281633 
L 269.595923 204.365012 
L 270.281085 207.92596 
L 270.966247 203.84722 
L 271.65141 202.690671 
L 272.336572 206.735737 
L 273.021734 207.621902 
L 273.706896 204.098729 
L 274.392059 209.863762 
L 275.077221 211.578368 
L 275.762383 205.318959 
L 277.132708 213.089647 
L 277.81787 210.19673 
L 278.503032 203.729033 
L 279.188194 211.045832 
L 280.558519 209.946386 
L 281.243681 206.607164 
L 281.928843 204.010465 
L 282.614006 203.21948 
L 283.299168 204.341263 
L 283.98433 199.636578 
L 284.669493 200.705372 
L 285.354655 195.984701 
L 286.039817 190.444823 
L 286.724979 193.177636 
L 288.095304 194.046453 
L 288.780466 190.521056 
L 289.465628 187.6158 
L 290.150791 195.070392 
L 290.835953 199.758748 
L 291.521115 198.145232 
L 292.206277 203.708181 
L 293.576602 195.137273 
L 294.261764 198.272101 
L 294.946926 192.796073 
L 295.632089 196.447863 
L 296.317251 194.913564 
L 297.002413 185.573901 
L 298.372738 196.781646 
L 299.0579 195.376461 
L 299.743062 198.299579 
L 300.428225 196.883674 
L 301.113387 207.586318 
L 301.798549 205.550013 
L 303.168874 197.408018 
L 303.854036 198.942185 
L 304.539198 196.309776 
L 305.22436 195.654965 
L 305.909523 192.165528 
L 306.594685 192.816158 
L 307.279847 189.51528 
L 307.965009 190.316406 
L 308.650172 185.91217 
L 309.335334 188.042169 
L 310.020496 188.736853 
L 310.705658 188.89851 
L 311.390821 191.322159 
L 312.075983 191.644112 
L 312.761145 191.393036 
L 313.446307 189.350579 
L 314.13147 183.327938 
L 314.816632 186.029142 
L 315.501794 186.323553 
L 316.186957 179.695149 
L 317.557281 186.427909 
L 318.242443 186.162159 
L 318.927606 188.136584 
L 319.612768 178.298028 
L 320.29793 179.638746 
L 320.983092 178.650704 
L 321.668255 174.409343 
L 322.353417 176.698196 
L 323.038579 172.028231 
L 323.723741 175.706211 
L 324.408904 181.846625 
L 325.094066 178.992872 
L 325.779228 182.444178 
L 326.46439 188.506438 
L 327.149553 189.111693 
L 327.834715 186.139374 
L 328.519877 192.908238 
L 329.20504 196.861712 
L 329.890202 195.669587 
L 330.575364 192.670946 
L 331.260526 185.216913 
L 331.945689 185.117279 
L 332.630851 185.494284 
L 333.316013 188.537632 
L 334.001175 188.062806 
L 334.686338 184.012819 
L 335.3715 183.513841 
L 336.056662 178.978015 
L 336.741824 177.780857 
L 337.426987 182.204095 
L 338.112149 182.521118 
L 338.797311 183.700026 
L 339.482473 186.713111 
L 340.167636 187.248916 
L 340.852798 189.663545 
L 341.53796 189.469581 
L 342.223122 193.838392 
L 342.908285 190.72411 
L 343.593447 189.361475 
L 344.278609 187.153403 
L 344.963772 183.330438 
L 345.648934 186.464604 
L 346.334096 184.762916 
L 347.019258 184.456406 
L 347.704421 188.683388 
L 348.389583 177.770471 
L 349.074745 181.4685 
L 349.759907 183.570193 
L 350.44507 176.125306 
L 351.130232 173.850293 
L 351.815394 174.633126 
L 352.500556 176.508741 
L 353.185719 175.914588 
L 353.870881 174.081654 
L 354.556043 174.818035 
L 355.241205 176.207473 
L 355.926368 182.545228 
L 356.61153 184.095717 
L 357.296692 179.101563 
L 357.981854 178.892395 
L 358.667017 183.352039 
L 359.352179 186.723195 
L 360.037341 194.226852 
L 360.722504 193.640523 
L 361.407666 191.903264 
L 362.092828 193.997613 
L 362.77799 186.979564 
L 363.463153 187.531795 
L 364.148315 193.41054 
L 364.833477 200.421956 
L 365.518639 203.125752 
L 366.203802 203.845632 
L 366.888964 198.35782 
L 367.574126 209.113067 
L 368.259288 209.506625 
L 368.944451 207.326969 
L 369.629613 206.936128 
L 370.314775 209.443516 
L 370.999937 213.309629 
L 371.6851 212.116438 
L 372.370262 217.408111 
L 373.055424 214.208452 
L 373.740586 218.169509 
L 374.425749 212.177972 
L 375.110911 210.018667 
L 375.796073 212.725972 
L 376.481236 208.990072 
L 377.166398 207.125475 
L 378.536722 212.231802 
L 379.221885 205.50557 
L 379.907047 211.253237 
L 380.592209 210.096146 
L 381.277371 214.895163 
L 381.962534 216.062478 
L 382.647696 218.052907 
L 383.332858 221.386501 
L 384.01802 221.194182 
L 384.703183 213.286326 
L 385.388345 211.51561 
L 386.073507 209.009746 
L 386.758669 202.178545 
L 387.443832 204.560043 
L 388.128994 201.529259 
L 388.814156 195.250994 
L 389.499319 197.593569 
L 390.869643 193.973489 
L 391.554805 197.366746 
L 392.239968 196.821954 
L 392.92513 197.903458 
L 393.610292 190.519185 
L 394.295454 194.452377 
L 394.980617 188.992836 
L 395.665779 188.25624 
L 396.350941 183.325478 
L 397.036103 185.264929 
L 397.721266 186.743788 
L 398.406428 189.465131 
L 399.09159 187.174485 
L 399.776752 186.63047 
L 400.461915 187.79102 
L 401.147077 184.878927 
L 401.832239 183.480777 
L 403.202564 175.686688 
L 403.887726 173.886424 
L 404.572888 167.55485 
L 405.258051 165.088164 
L 405.943213 170.354697 
L 406.628375 166.452759 
L 407.313537 165.207315 
L 407.9987 163.001566 
L 409.369024 157.054807 
L 410.054186 156.393154 
L 410.739349 157.869599 
L 411.424511 153.74431 
L 412.109673 152.996043 
L 412.794835 156.505397 
L 414.16516 155.186859 
L 414.850322 149.435543 
L 415.535484 146.319037 
L 416.220647 150.748031 
L 416.905809 148.737473 
L 417.590971 148.9103 
L 418.276133 152.396968 
L 418.961296 148.522038 
L 419.646458 151.051319 
L 420.33162 159.750102 
L 421.016783 151.609683 
L 421.701945 148.89857 
L 422.387107 144.79067 
L 423.072269 139.034862 
L 423.757432 130.650477 
L 424.442594 130.973965 
L 425.127756 129.277201 
L 425.812918 128.424283 
L 426.498081 142.462732 
L 427.183243 147.463022 
L 427.868405 149.515541 
L 429.23873 145.736506 
L 429.923892 140.960987 
L 430.609054 139.242961 
L 431.294216 133.466242 
L 431.979379 134.370111 
L 432.664541 135.564993 
L 433.349703 130.402198 
L 434.720028 122.967603 
L 435.40519 122.937916 
L 436.090352 124.565124 
L 436.775515 125.589476 
L 437.460677 118.114677 
L 438.145839 120.986103 
L 438.831001 119.18463 
L 439.516164 118.493987 
L 440.201326 123.386845 
L 440.886488 122.121321 
L 441.57165 119.192101 
L 442.256813 118.675359 
L 442.941975 119.845731 
L 443.627137 115.95111 
L 444.312299 113.75467 
L 444.997462 109.067269 
L 445.682624 108.397781 
L 446.367786 107.036414 
L 447.052948 104.882124 
L 447.738111 108.493949 
L 448.423273 105.461381 
L 449.108435 103.043199 
L 449.793598 103.103245 
L 450.47876 104.372296 
L 451.163922 107.135505 
L 451.849084 111.650741 
L 452.534247 106.119151 
L 453.219409 106.578315 
L 453.904571 103.517123 
L 454.589733 98.464675 
L 455.274896 92.305712 
L 455.960058 81.820698 
L 456.64522 80.337384 
L 457.330382 83.185575 
L 458.015545 84.27483 
L 458.700707 86.296544 
L 459.385869 84.906312 
L 460.071031 85.19425 
L 460.756194 83.045184 
L 461.441356 73.800862 
L 462.126518 79.416567 
L 462.81168 78.941619 
L 463.496843 75.670612 
L 464.867167 83.047917 
L 466.237492 86.265092 
L 466.922654 86.952205 
L 467.607816 88.709311 
L 468.292979 89.255197 
L 468.978141 90.35478 
L 469.663303 93.920734 
L 470.348465 85.735713 
L 471.033628 80.299451 
L 471.71879 72.966651 
L 472.403952 72.852514 
L 473.089114 74.326074 
L 473.774277 68.748728 
L 474.459439 70.85563 
L 475.144601 67.920288 
L 475.829763 68.408819 
L 476.514926 68.689317 
L 477.200088 64.948205 
L 477.88525 70.377494 
L 478.570412 67.488082 
L 479.255575 64.017325 
L 479.940737 61.401074 
L 480.625899 54.317162 
L 481.311062 53.686278 
L 481.996224 55.884882 
L 482.681386 53.598739 
L 483.366548 56.81756 
L 484.051711 61.523732 
L 484.736873 63.539362 
L 486.107197 58.918529 
L 486.79236 62.317761 
L 487.477522 59.624069 
L 488.162684 59.586674 
L 488.847846 60.410796 
L 489.533009 63.611633 
L 490.218171 60.026667 
L 490.903333 64.021885 
L 491.588495 62.973561 
L 492.273658 56.576383 
L 492.95882 60.916396 
L 493.643982 61.598065 
L 494.329144 64.667751 
L 495.014307 65.033757 
L 495.699469 68.115554 
L 497.069794 81.843367 
L 497.754956 83.841792 
L 498.440118 82.157705 
L 499.12528 86.634187 
L 499.810443 83.782749 
L 500.495605 89.28917 
L 501.180767 88.295345 
L 501.865929 89.301138 
L 502.551092 86.324774 
L 503.236254 85.394068 
L 503.921416 90.521143 
L 504.606578 92.35398 
L 505.291741 96.667724 
L 505.976903 97.105734 
L 506.662065 98.835948 
L 507.347227 103.866838 
L 508.717552 100.81345 
L 509.402714 97.577316 
L 510.087877 97.374615 
L 511.458201 93.146591 
L 512.143363 93.598885 
L 512.828526 96.788248 
L 513.513688 92.309584 
L 514.19885 91.578958 
L 514.884012 93.272911 
L 515.569175 85.776713 
L 516.254337 86.655053 
L 516.939499 82.397357 
L 517.624661 76.745601 
L 518.994986 71.190285 
L 519.680148 68.811962 
L 520.36531 68.313056 
L 521.050473 62.718852 
L 521.735635 63.153688 
L 522.420797 66.008396 
L 523.105959 65.955295 
L 523.791122 68.338791 
L 524.476284 64.30605 
L 525.161446 62.155717 
L 526.531771 67.819881 
L 527.216933 72.728526 
L 527.902095 68.387525 
L 528.587258 66.024642 
L 529.27242 56.339352 
L 529.957582 55.184366 
L 530.642744 55.350846 
L 531.327907 57.691201 
L 532.013069 52.077299 
L 532.698231 52.227659 
L 533.383393 53.600373 
L 534.068556 48.744492 
L 534.753718 51.961874 
L 535.43888 36.256594 
L 536.124042 33.114722 
L 536.809205 39.550803 
L 537.494367 41.546529 
L 538.179529 38.794427 
L 538.864691 42.84605 
L 539.549854 43.911569 
L 540.235016 47.625725 
L 540.920178 43.879456 
L 541.605341 44.109328 
L 542.290503 43.505334 
L 542.975665 37.524371 
L 543.660827 46.415217 
L 544.34599 48.822606 
L 545.031152 48.893245 
L 545.716314 52.34349 
L 546.401476 42.087666 
L 547.086639 40.513397 
L 547.771801 40.683642 
L 548.456963 37.585685 
L 549.142125 43.456178 
L 549.827288 44.555666 
L 550.51245 44.149986 
L 551.197612 42.769639 
L 551.882774 45.632262 
L 552.567937 41.327525 
L 552.567937 41.327525 
" style="fill:none;stroke:#1f77b4;stroke-linecap:square;stroke-width:1.5;"/>
   </g>
   <g id="patch_3">
    <path d="M 35.304688 259.84327 
L 35.304688 22.318125 
" style="fill:none;stroke:#000000;stroke-linecap:square;stroke-linejoin:miter;stroke-width:0.8;"/>
   </g>
   <g id="patch_4">
    <path d="M 577.19952 259.84327 
L 577.19952 22.318125 
" style="fill:none;stroke:#000000;stroke-linecap:square;stroke-linejoin:miter;stroke-width:0.8;"/>
   </g>
   <g id="patch_5">
    <path d="M 35.304688 259.84327 
L 577.19952 259.84327 
" style="fill:none;stroke:#000000;stroke-linecap:square;stroke-linejoin:miter;stroke-width:0.8;"/>
   </g>
   <g id="patch_6">
    <path d="M 35.304688 22.318125 
L 577.19952 22.318125 
" style="fill:none;stroke:#000000;stroke-linecap:square;stroke-linejoin:miter;stroke-width:0.8;"/>
   </g>
   <g id="text_17">
    <!-- Timedelta Formatter with Offset on Days -->
    <g transform="translate(183.897104 16.318125)scale(0.12 -0.12)">
     <defs>
      <path d="M -0.296875 72.90625 
L 61.375 72.90625 
L 61.375 64.59375 
L 35.5 64.59375 
L 35.5 0 
L 25.59375 0 
L 25.59375 64.59375 
L -0.296875 64.59375 
z
" id="DejaVuSans-84"/>
      <path d="M 9.421875 54.6875 
L 18.40625 54.6875 
L 18.40625 0 
L 9.421875 0 
z
M 9.421875 75.984375 
L 18.40625 75.984375 
L 18.40625 64.59375 
L 9.421875 64.59375 
z
" id="DejaVuSans-105"/>
      <path d="M 52 44.1875 
Q 55.375 50.25 60.0625 53.125 
Q 64.75 56 71.09375 56 
Q 79.640625 56 84.28125 50.015625 
Q 88.921875 44.046875 88.921875 33.015625 
L 88.921875 0 
L 79.890625 0 
L 79.890625 32.71875 
Q 79.890625 40.578125 77.09375 44.375 
Q 74.3125 48.1875 68.609375 48.1875 
Q 61.625 48.1875 57.5625 43.546875 
Q 53.515625 38.921875 53.515625 30.90625 
L 53.515625 0 
L 44.484375 0 
L 44.484375 32.71875 
Q 44.484375 40.625 41.703125 44.40625 
Q 38.921875 48.1875 33.109375 48.1875 
Q 26.21875 48.1875 22.15625 43.53125 
Q 18.109375 38.875 18.109375 30.90625 
L 18.109375 0 
L 9.078125 0 
L 9.078125 54.6875 
L 18.109375 54.6875 
L 18.109375 46.1875 
Q 21.1875 51.21875 25.484375 53.609375 
Q 29.78125 56 35.6875 56 
Q 41.65625 56 45.828125 52.96875 
Q 50 49.953125 52 44.1875 
z
" id="DejaVuSans-109"/>
      <path d="M 56.203125 29.59375 
L 56.203125 25.203125 
L 14.890625 25.203125 
Q 15.484375 15.921875 20.484375 11.0625 
Q 25.484375 6.203125 34.421875 6.203125 
Q 39.59375 6.203125 44.453125 7.46875 
Q 49.3125 8.734375 54.109375 11.28125 
L 54.109375 2.78125 
Q 49.265625 0.734375 44.1875 -0.34375 
Q 39.109375 -1.421875 33.890625 -1.421875 
Q 20.796875 -1.421875 13.15625 6.1875 
Q 5.515625 13.8125 5.515625 26.8125 
Q 5.515625 40.234375 12.765625 48.109375 
Q 20.015625 56 32.328125 56 
Q 43.359375 56 49.78125 48.890625 
Q 56.203125 41.796875 56.203125 29.59375 
z
M 47.21875 32.234375 
Q 47.125 39.59375 43.09375 43.984375 
Q 39.0625 48.390625 32.421875 48.390625 
Q 24.90625 48.390625 20.390625 44.140625 
Q 15.875 39.890625 15.1875 32.171875 
z
" id="DejaVuSans-101"/>
      <path d="M 9.421875 75.984375 
L 18.40625 75.984375 
L 18.40625 0 
L 9.421875 0 
z
" id="DejaVuSans-108"/>
      <path d="M 18.3125 70.21875 
L 18.3125 54.6875 
L 36.8125 54.6875 
L 36.8125 47.703125 
L 18.3125 47.703125 
L 18.3125 18.015625 
Q 18.3125 11.328125 20.140625 9.421875 
Q 21.96875 7.515625 27.59375 7.515625 
L 36.8125 7.515625 
L 36.8125 0 
L 27.59375 0 
Q 17.1875 0 13.234375 3.875 
Q 9.28125 7.765625 9.28125 18.015625 
L 9.28125 47.703125 
L 2.6875 47.703125 
L 2.6875 54.6875 
L 9.28125 54.6875 
L 9.28125 70.21875 
z
" id="DejaVuSans-116"/>
      <path d="M 9.8125 72.90625 
L 51.703125 72.90625 
L 51.703125 64.59375 
L 19.671875 64.59375 
L 19.671875 43.109375 
L 48.578125 43.109375 
L 48.578125 34.8125 
L 19.671875 34.8125 
L 19.671875 0 
L 9.8125 0 
z
" id="DejaVuSans-70"/>
      <path d="M 30.609375 48.390625 
Q 23.390625 48.390625 19.1875 42.75 
Q 14.984375 37.109375 14.984375 27.296875 
Q 14.984375 17.484375 19.15625 11.84375 
Q 23.34375 6.203125 30.609375 6.203125 
Q 37.796875 6.203125 41.984375 11.859375 
Q 46.1875 17.53125 46.1875 27.296875 
Q 46.1875 37.015625 41.984375 42.703125 
Q 37.796875 48.390625 30.609375 48.390625 
z
M 30.609375 56 
Q 42.328125 56 49.015625 48.375 
Q 55.71875 40.765625 55.71875 27.296875 
Q 55.71875 13.875 49.015625 6.21875 
Q 42.328125 -1.421875 30.609375 -1.421875 
Q 18.84375 -1.421875 12.171875 6.21875 
Q 5.515625 13.875 5.515625 27.296875 
Q 5.515625 40.765625 12.171875 48.375 
Q 18.84375 56 30.609375 56 
z
" id="DejaVuSans-111"/>
      <path d="M 41.109375 46.296875 
Q 39.59375 47.171875 37.8125 47.578125 
Q 36.03125 48 33.890625 48 
Q 26.265625 48 22.1875 43.046875 
Q 18.109375 38.09375 18.109375 28.8125 
L 18.109375 0 
L 9.078125 0 
L 9.078125 54.6875 
L 18.109375 54.6875 
L 18.109375 46.1875 
Q 20.953125 51.171875 25.484375 53.578125 
Q 30.03125 56 36.53125 56 
Q 37.453125 56 38.578125 55.875 
Q 39.703125 55.765625 41.0625 55.515625 
z
" id="DejaVuSans-114"/>
      <path d="M 4.203125 54.6875 
L 13.1875 54.6875 
L 24.421875 12.015625 
L 35.59375 54.6875 
L 46.1875 54.6875 
L 57.421875 12.015625 
L 68.609375 54.6875 
L 77.59375 54.6875 
L 63.28125 0 
L 52.6875 0 
L 40.921875 44.828125 
L 29.109375 0 
L 18.5 0 
z
" id="DejaVuSans-119"/>
      <path d="M 54.890625 33.015625 
L 54.890625 0 
L 45.90625 0 
L 45.90625 32.71875 
Q 45.90625 40.484375 42.875 44.328125 
Q 39.84375 48.1875 33.796875 48.1875 
Q 26.515625 48.1875 22.3125 43.546875 
Q 18.109375 38.921875 18.109375 30.90625 
L 18.109375 0 
L 9.078125 0 
L 9.078125 75.984375 
L 18.109375 75.984375 
L 18.109375 46.1875 
Q 21.34375 51.125 25.703125 53.5625 
Q 30.078125 56 35.796875 56 
Q 45.21875 56 50.046875 50.171875 
Q 54.890625 44.34375 54.890625 33.015625 
z
" id="DejaVuSans-104"/>
      <path d="M 39.40625 66.21875 
Q 28.65625 66.21875 22.328125 58.203125 
Q 16.015625 50.203125 16.015625 36.375 
Q 16.015625 22.609375 22.328125 14.59375 
Q 28.65625 6.59375 39.40625 6.59375 
Q 50.140625 6.59375 56.421875 14.59375 
Q 62.703125 22.609375 62.703125 36.375 
Q 62.703125 50.203125 56.421875 58.203125 
Q 50.140625 66.21875 39.40625 66.21875 
z
M 39.40625 74.21875 
Q 54.734375 74.21875 63.90625 63.9375 
Q 73.09375 53.65625 73.09375 36.375 
Q 73.09375 19.140625 63.90625 8.859375 
Q 54.734375 -1.421875 39.40625 -1.421875 
Q 24.03125 -1.421875 14.8125 8.828125 
Q 5.609375 19.09375 5.609375 36.375 
Q 5.609375 53.65625 14.8125 63.9375 
Q 24.03125 74.21875 39.40625 74.21875 
z
" id="DejaVuSans-79"/>
      <path d="M 37.109375 75.984375 
L 37.109375 68.5 
L 28.515625 68.5 
Q 23.6875 68.5 21.796875 66.546875 
Q 19.921875 64.59375 19.921875 59.515625 
L 19.921875 54.6875 
L 34.71875 54.6875 
L 34.71875 47.703125 
L 19.921875 47.703125 
L 19.921875 0 
L 10.890625 0 
L 10.890625 47.703125 
L 2.296875 47.703125 
L 2.296875 54.6875 
L 10.890625 54.6875 
L 10.890625 58.5 
Q 10.890625 67.625 15.140625 71.796875 
Q 19.390625 75.984375 28.609375 75.984375 
z
" id="DejaVuSans-102"/>
      <path d="M 54.890625 33.015625 
L 54.890625 0 
L 45.90625 0 
L 45.90625 32.71875 
Q 45.90625 40.484375 42.875 44.328125 
Q 39.84375 48.1875 33.796875 48.1875 
Q 26.515625 48.1875 22.3125 43.546875 
Q 18.109375 38.921875 18.109375 30.90625 
L 18.109375 0 
L 9.078125 0 
L 9.078125 54.6875 
L 18.109375 54.6875 
L 18.109375 46.1875 
Q 21.34375 51.125 25.703125 53.5625 
Q 30.078125 56 35.796875 56 
Q 45.21875 56 50.046875 50.171875 
Q 54.890625 44.34375 54.890625 33.015625 
z
" id="DejaVuSans-110"/>
      <path d="M 19.671875 64.796875 
L 19.671875 8.109375 
L 31.59375 8.109375 
Q 46.6875 8.109375 53.6875 14.9375 
Q 60.6875 21.78125 60.6875 36.53125 
Q 60.6875 51.171875 53.6875 57.984375 
Q 46.6875 64.796875 31.59375 64.796875 
z
M 9.8125 72.90625 
L 30.078125 72.90625 
Q 51.265625 72.90625 61.171875 64.09375 
Q 71.09375 55.28125 71.09375 36.53125 
Q 71.09375 17.671875 61.125 8.828125 
Q 51.171875 0 30.078125 0 
L 9.8125 0 
z
" id="DejaVuSans-68"/>
     </defs>
     <use xlink:href="#DejaVuSans-84"/>
     <use x="57.958984" xlink:href="#DejaVuSans-105"/>
     <use x="85.742188" xlink:href="#DejaVuSans-109"/>
     <use x="183.154297" xlink:href="#DejaVuSans-101"/>
     <use x="244.677734" xlink:href="#DejaVuSans-100"/>
     <use x="308.154297" xlink:href="#DejaVuSans-101"/>
     <use x="369.677734" xlink:href="#DejaVuSans-108"/>
     <use x="397.460938" xlink:href="#DejaVuSans-116"/>
     <use x="436.669922" xlink:href="#DejaVuSans-97"/>
     <use x="497.949219" xlink:href="#DejaVuSans-32"/>
     <use x="529.736328" xlink:href="#DejaVuSans-70"/>
     <use x="583.630859" xlink:href="#DejaVuSans-111"/>
     <use x="644.8125" xlink:href="#DejaVuSans-114"/>
     <use x="684.175781" xlink:href="#DejaVuSans-109"/>
     <use x="781.587891" xlink:href="#DejaVuSans-97"/>
     <use x="842.867188" xlink:href="#DejaVuSans-116"/>
     <use x="882.076172" xlink:href="#DejaVuSans-116"/>
     <use x="921.285156" xlink:href="#DejaVuSans-101"/>
     <use x="982.808594" xlink:href="#DejaVuSans-114"/>
     <use x="1023.921875" xlink:href="#DejaVuSans-32"/>
     <use x="1055.708984" xlink:href="#DejaVuSans-119"/>
     <use x="1137.496094" xlink:href="#DejaVuSans-105"/>
     <use x="1165.279297" xlink:href="#DejaVuSans-116"/>
     <use x="1204.488281" xlink:href="#DejaVuSans-104"/>
     <use x="1267.867188" xlink:href="#DejaVuSans-32"/>
     <use x="1299.654297" xlink:href="#DejaVuSans-79"/>
     <use x="1378.365234" xlink:href="#DejaVuSans-102"/>
     <use x="1413.570312" xlink:href="#DejaVuSans-102"/>
     <use x="1448.775391" xlink:href="#DejaVuSans-115"/>
     <use x="1500.875" xlink:href="#DejaVuSans-101"/>
     <use x="1562.398438" xlink:href="#DejaVuSans-116"/>
     <use x="1601.607422" xlink:href="#DejaVuSans-32"/>
     <use x="1633.394531" xlink:href="#DejaVuSans-111"/>
     <use x="1694.576172" xlink:href="#DejaVuSans-110"/>
     <use x="1757.955078" xlink:href="#DejaVuSans-32"/>
     <use x="1789.742188" xlink:href="#DejaVuSans-68"/>
     <use x="1866.744141" xlink:href="#DejaVuSans-97"/>
     <use x="1928.023438" xlink:href="#DejaVuSans-121"/>
     <use x="1987.203125" xlink:href="#DejaVuSans-115"/>
    </g>
   </g>
  </g>
 </g>
 <defs>
  <clipPath id="p06c98a1d8f">
   <rect height="237.525145" width="541.894832" x="35.304688" y="22.318125"/>
  </clipPath>
 </defs>
</svg>
